<?xml version="1.0" encoding="UTF-8" standalone="no"?>
<!-- Created with Inkscape (http://www.inkscape.org/) -->

<svg
   width="113.67364mm"
   height="56.37999mm"
   viewBox="0 0 113.67364 56.37999"
   version="1.1"
   id="svg3223"
   inkscape:version="1.4.2 (f4327f4, 2025-05-13)"
   sodipodi:docname="logo.svg"
   inkscape:export-filename="logo.png"
   inkscape:export-xdpi="67.034012"
   inkscape:export-ydpi="67.034012"
   xmlns:inkscape="http://www.inkscape.org/namespaces/inkscape"
   xmlns:sodipodi="http://sodipodi.sourceforge.net/DTD/sodipodi-0.dtd"
   xmlns="http://www.w3.org/2000/svg"
   xmlns:svg="http://www.w3.org/2000/svg"
   xmlns:rdf="http://www.w3.org/1999/02/22-rdf-syntax-ns#"
   xmlns:cc="http://creativecommons.org/ns#"
   xmlns:dc="http://purl.org/dc/elements/1.1/">
  <defs
     id="defs3217" />
  <sodipodi:namedview
     id="base"
     pagecolor="#ffffff"
     bordercolor="#666666"
     borderopacity="1.0"
     inkscape:pageopacity="0.0"
     inkscape:pageshadow="2"
     inkscape:zoom="1"
     inkscape:cx="212.99999"
     inkscape:cy="78.499998"
     inkscape:document-units="mm"
     inkscape:current-layer="layer1"
     showgrid="false"
     inkscape:pagecheckerboard="true"
     inkscape:window-width="1366"
     inkscape:window-height="705"
     inkscape:window-x="-8"
     inkscape:window-y="-8"
     inkscape:window-maximized="1"
     inkscape:showpageshadow="2"
     inkscape:deskcolor="#d1d1d1" />
  <metadata
     id="metadata3220">
    <rdf:RDF>
      <cc:Work
         rdf:about="">
        <dc:format>image/svg+xml</dc:format>
        <dc:type
           rdf:resource="http://purl.org/dc/dcmitype/StillImage" />
      </cc:Work>
    </rdf:RDF>
  </metadata>
  <g
     inkscape:label="Оригінал-оригінал"
     inkscape:groupmode="layer"
     id="layer1"
     transform="translate(-56.556041,-109.30405)"
     style="display:inline">
    <g
       transform="translate(-3.7799155,-23.482217)"
       id="g2559"
       style="display:inline">
      <path
         inkscape:connector-curvature="0"
         id="path148"
         style="fill:#cc0000;fill-opacity:1;fill-rule:nonzero;stroke:none;stroke-width:0.347732"
         d="m 143.44393,145.03077 c 0.38749,-1.49145 2.9,-0.54144 4.1989,-0.98576 2.12773,-0.61587 0.24042,2.2693 0.36397,3.40105 -1.83418,8.76003 -3.66835,17.52006 -5.50252,26.28009 -1.45799,0.003 0.25352,-2.75695 0.14001,-3.92594 1.75018,-8.36017 3.50037,-16.72035 5.25055,-25.08052 -1.48364,0.10369 -2.96727,0.20739 -4.45091,0.31108 z m 1.18682,31.16724 c 2.43945,-11.69146 4.8789,-23.38292 7.31835,-35.07438 -3.47767,0.24308 -6.95535,0.48615 -10.43302,0.72923 -0.42838,2.04083 -0.85676,4.08166 -1.28514,6.12249 1.35579,0.0754 3.55458,-0.58503 4.39845,-0.0628 -1.99353,9.56803 -3.98706,19.13606 -5.98059,28.70409 1.99398,-0.13954 3.98797,-0.27908 5.98195,-0.41862 z"
         inkscape:label="Цифра 1 - Основа" />
      <path
         inkscape:connector-curvature="0"
         id="path152"
         style="fill:#cc0000;fill-opacity:1;fill-rule:nonzero;stroke:none;stroke-width:0.347732"
         d="m 169.25392,142.53363 c -1.17891,5.63083 -2.35781,11.26167 -3.53672,16.8925 1.59708,-0.10958 3.19416,-0.21916 4.79124,-0.32874 -0.21392,1.60453 -2.75232,0.54338 -3.9545,1.01459 -1.84799,-0.17811 -1.1462,2.57179 -1.77469,3.79408 -0.58515,2.79496 -1.1703,5.58992 -1.75545,8.38488 -1.56573,0.0792 0.19398,-2.73811 0.0785,-3.92212 0.56822,-2.71232 1.13645,-5.42464 1.70467,-8.13696 -3.79111,0.26241 -7.58221,0.52483 -11.37332,0.78724 5.27342,-6.16182 10.54683,-12.32365 15.82025,-18.48547 z m -18.98495,21.327 c 3.79108,-0.26241 7.58216,-0.52483 11.37324,-0.78724 -0.84157,4.03715 -1.68313,8.07431 -2.5247,12.11146 1.99437,-0.13946 3.98875,-0.27893 5.98312,-0.41839 0.84171,-4.03469 1.68342,-8.06937 2.52513,-12.10406 1.60886,-0.11039 3.21772,-0.22077 4.82658,-0.33116 0.4224,-2.02634 0.84481,-4.05269 1.26721,-6.07903 -1.60855,0.11036 -3.21709,0.22073 -4.82564,0.33109 1.17466,-5.63034 2.34932,-11.26067 3.52398,-16.89101 -1.53873,0.24759 -3.33611,-0.0148 -4.72469,0.52884 -5.51238,6.47174 -11.02475,12.94347 -16.53713,19.4152 -0.2957,1.4081 -0.5914,2.8162 -0.8871,4.2243 z"
         inkscape:label="Цифра 4 - Основа" />
      <path
         inkscape:connector-curvature="0"
         id="path204"
         style="fill:#0057b8;fill-opacity:1;fill-rule:nonzero;stroke:none;stroke-width:0.347732"
         d="m 70.519326,139.92277 c -1.123844,2.24463 1.753867,0.98325 3.013846,1.13927 33.393988,-2.29563 66.787978,-4.59127 100.181968,-6.88691 1.15064,-2.25507 -1.71629,-1.01926 -2.99681,-1.1619 -33.39966,2.30318 -66.79933,4.60636 -100.199004,6.90954 z"
         inkscape:label="Верхня лінія" />
      <path
         inkscape:connector-curvature="0"
         id="path208"
         style="fill:#ffd700;fill-opacity:1;fill-rule:nonzero;stroke:none;stroke-width:0.347732"
         d="m 60.335956,189.16626 c 34.491091,-2.37119 68.982184,-4.74237 103.473274,-7.11356 1.15063,-2.25507 -1.71631,-1.01925 -2.99682,-1.16189 -33.39957,2.30318 -66.799137,4.60635 -100.198708,6.90953 -0.09258,0.45531 -0.185164,0.91061 -0.277746,1.36592 z"
         inkscape:label="Нижня лінія" />
      <path
         inkscape:connector-curvature="0"
         id="path1772"
         d="m 167.92741,145.26275 c -4.29229,4.96508 -8.58458,9.93015 -12.87687,14.89523 3.30455,-0.22673 6.60911,-0.45346 9.91366,-0.68019 0.98774,-4.73835 1.97547,-9.47669 2.96321,-14.21504 z m -3.743,7.27758 c -0.34299,1.64537 -0.68597,3.29075 -1.02896,4.93612 -1.07474,-0.14746 -4.69423,0.96416 -2.6784,-0.71242 1.23579,-1.4079 2.47157,-2.8158 3.70736,-4.2237 z"
         style="fill:#cc0000;fill-opacity:1;stroke:none;stroke-width:0.262684px;stroke-linecap:butt;stroke-linejoin:miter;stroke-opacity:1"
         inkscape:label="Цифра 4 - Додаткове" />
    </g>
  </g>
  <g
     inkscape:groupmode="layer"
     id="layer2"
     inkscape:label="Наше"
     style="display:inline">
    <text
       xml:space="preserve"
       style="font-style:normal;font-variant:normal;font-weight:normal;font-stretch:normal;font-size:20.5477px;font-family:'Grizzly Bear 11 Shadow Fill';-inkscape-font-specification:'Grizzly Bear 11 Shadow Fill, Normal';font-variant-ligatures:normal;font-variant-caps:normal;font-variant-numeric:normal;font-variant-east-asian:normal;text-align:start;writing-mode:lr-tb;direction:ltr;text-anchor:start;fill:#0057b8;fill-opacity:1;stroke:#0057b8;stroke-width:0.432556;stroke-dasharray:none;stroke-opacity:1"
       x="13.596945"
       y="26.683619"
       id="text2"
       transform="matrix(0.81567885,-0.05678388,-0.25855566,1.2439722,0,0)"
       inkscape:label="Напис космічна"><tspan
         sodipodi:role="line"
         id="tspan2"
         style="font-style:normal;font-variant:normal;font-weight:normal;font-stretch:normal;font-size:20.5477px;font-family:'Grizzly Bear 11 Shadow Fill';-inkscape-font-specification:'Grizzly Bear 11 Shadow Fill, Normal';font-variant-ligatures:normal;font-variant-caps:normal;font-variant-numeric:normal;font-variant-east-asian:normal;fill:#0057b8;fill-opacity:1;stroke:#0057b8;stroke-width:0.432556;stroke-dasharray:none;stroke-opacity:1"
         x="13.596945"
         y="26.683619">КOCMIЧHA</tspan></text>
    <text
       xml:space="preserve"
       style="font-style:normal;font-variant:normal;font-weight:normal;font-stretch:normal;font-size:19.5728px;font-family:'Grizzly Bear 11 Shadow Fill';-inkscape-font-specification:'Grizzly Bear 11 Shadow Fill, Normal';font-variant-ligatures:normal;font-variant-caps:normal;font-variant-numeric:normal;font-variant-east-asian:normal;text-align:start;writing-mode:lr-tb;direction:ltr;text-anchor:start;fill:#ffd700;fill-opacity:1;stroke:#000000;stroke-width:0.386151;stroke-opacity:0"
       x="10.834386"
       y="49.663269"
       id="text4"
       transform="matrix(1.0112457,-0.06910429,-0.21479129,1.0035573,0,0)"
       inkscape:export-filename="logo.png"
       inkscape:export-xdpi="67.034012"
       inkscape:export-ydpi="67.034012"
       inkscape:label="Напис станція"><tspan
         sodipodi:role="line"
         id="tspan3"
         style="font-style:normal;font-variant:normal;font-weight:normal;font-stretch:normal;font-size:19.5728px;font-family:'Grizzly Bear 11 Shadow Fill';-inkscape-font-specification:'Grizzly Bear 11 Shadow Fill, Normal';font-variant-ligatures:normal;font-variant-caps:normal;font-variant-numeric:normal;font-variant-east-asian:normal;fill:#ffd700;fill-opacity:1;stroke:#000000;stroke-width:0.38615;stroke-opacity:0"
         x="10.834386"
         y="49.663269">CTAHЦIЯ</tspan></text>
  </g>
  <g
     id="g1"
     inkscape:label="Референси"
     style="display:inline">
    <path
       style="display:none;fill:none;fill-rule:evenodd;stroke:#000000;stroke-width:0.25;stroke-linecap:butt;stroke-linejoin:miter;stroke-dasharray:none;stroke-opacity:1"
       d="M 0.02072099,56.215302 10.170281,7.1629912"
       id="path1"
       inkscape:connector-type="polyline"
       inkscape:connector-curvature="0" />
    <path
       style="display:none;fill:none;fill-rule:evenodd;stroke:#000000;stroke-width:0.25;stroke-linecap:butt;stroke-linejoin:miter;stroke-dasharray:none;stroke-opacity:1"
       d="M 70.203205,51.394219 80.352765,2.3419096"
       id="path1-2"
       inkscape:connector-type="polyline"
       inkscape:connector-curvature="0" />
    <path
       style="display:none;fill:none;fill-rule:evenodd;stroke:#000000;stroke-width:0.25;stroke-linecap:butt;stroke-linejoin:miter;stroke-dasharray:none;stroke-opacity:1"
       d="M 105.08122,42.087397 -2.7507083,49.553693"
       id="path3"
       inkscape:connector-type="polyline"
       inkscape:connector-curvature="0" />
    <path
       style="display:none;fill:none;fill-rule:evenodd;stroke:#000000;stroke-width:0.25;stroke-linecap:butt;stroke-linejoin:miter;stroke-dasharray:none;stroke-opacity:1"
       d="M 112.16444,6.766587 4.3325207,14.232883"
       id="path3-9"
       inkscape:connector-type="polyline"
       inkscape:connector-curvature="0" />
    <path
       inkscape:connector-curvature="0"
       id="path148-5"
       style="display:none;fill:#e23229;fill-opacity:1;fill-rule:nonzero;stroke:none;stroke-width:0.347732"
       d="m 83.109197,12.244383 0.1484,-0.70241 5.14257,-0.35974 -6.23062,29.75753 -0.69199,0.0483 6.08255,-29.05476 z m 1.18682,31.16724 7.31835,-35.0743798 -10.43302,0.7292297 -1.28514,6.1224901 4.45021,-0.31125 -6.03235,28.95253 z" />
    <path
       sodipodi:nodetypes="cccccccccccccccccccccc"
       inkscape:connector-curvature="0"
       id="path152-1"
       style="display:none;fill:#e23229;fill-opacity:1;fill-rule:nonzero;stroke:none;stroke-width:0.347732"
       d="m 108.91918,9.7472429 -3.53672,16.8925001 4.79124,-0.32874 -0.15681,0.75402 -4.79234,0.32881 -2.53549,12.11072 -0.75405,0.052 2.53724,-12.11108 -11.373313,0.78724 z m -18.984943,21.3270001 11.373233,-0.78724 -2.524693,12.11146 5.983113,-0.41839 2.52513,-12.10406 4.82658,-0.33116 1.26721,-6.07903 -4.82564,0.33109 3.52398,-16.8910098 -4.56014,0.33565 -16.701673,19.6083898 z" />
    <path
       inkscape:connector-curvature="0"
       id="path156"
       style="display:none;fill:#fefefe;fill-opacity:1;fill-rule:nonzero;stroke:none;stroke-width:0.347732"
       d="m 28.257167,19.045193 -2.595368,0.18103 0.741705,-3.62685 2.595079,-0.182 z m -4.581719,-6.72375 -3.99857,19.05572 3.468889,-0.24195 1.774487,-8.38766 6.064403,-0.42299 2.224789,-10.66981 z" />
    <path
       inkscape:connector-curvature="0"
       id="path160"
       style="display:none;fill:#fefefe;fill-opacity:1;fill-rule:nonzero;stroke:none;stroke-width:0.347732"
       d="m 40.515554,15.035383 2.83371,-0.19837 -0.74166,3.60045 -2.83371,0.19836 z m -6.726869,15.77696 3.469312,-0.24198 1.774487,-8.38695 2.8337,-0.19837 -1.77453,8.38695 3.46938,-0.24296 3.99895,-19.05608 -9.771974,0.68329 z" />
    <path
       inkscape:connector-curvature="0"
       id="path164"
       style="display:none;fill:#fefefe;fill-opacity:1;fill-rule:nonzero;stroke:none;stroke-width:0.347732"
       d="m 48.469934,29.901293 9.74554,-0.68118 1.377,-6.50502 -3.4693,0.24296 -0.63527,2.9832 -2.80718,0.19654 2.51548,-12.01379 2.80731,-0.19754 -0.50239,2.4195 3.46902,-0.24294 1.24513,-5.93998 -9.74589,0.68119 z" />
    <path
       inkscape:connector-curvature="0"
       id="path168"
       style="display:none;fill:#fefefe;fill-opacity:1;fill-rule:nonzero;stroke:none;stroke-width:0.347732"
       d="m 75.332937,12.831493 0.7409,-3.5211001 -8.951323,0.6259 -3.99824,19.0564001 8.950973,-0.62626 0.74082,-3.52077 -5.481603,0.383 1.03272,-4.89224 3.786753,-0.26474 0.74189,-3.52113 -3.786753,0.26474 0.74081,-3.6011 z" />
    <path
       inkscape:connector-curvature="0"
       id="path172"
       style="display:none;fill:#d5d5d5;fill-opacity:1;fill-rule:nonzero;stroke:none;stroke-width:0.347732"
       d="m 10.735398,40.166163 -4.7346643,0.33077 0.57447,-2.73456 2.139294,-0.14973 -0.376241,1.80924 2.5954423,-0.18103 0.930868,-4.44332 -7.3301143,0.5118 -1.66358,8.00131 4.734672,-0.33077 -0.773014,3.62025 -2.119829,0.1484 0.475696,-2.23174 -2.614982,0.18237 -1.030327,4.86616 7.330104,-0.5118 z" />
    <path
       inkscape:connector-curvature="0"
       id="path176"
       style="display:none;fill:#d5d5d5;fill-opacity:1;fill-rule:nonzero;stroke:none;stroke-width:0.347732"
       d="m 14.460092,37.211153 2.496095,-0.17422 -2.436556,11.62085 2.595151,-0.182 2.436903,-11.62086 2.496023,-0.17421 0.554678,-2.63441 -7.587516,0.53064 z" />
    <path
       inkscape:connector-curvature="0"
       id="path180"
       style="display:none;fill:#d5d5d5;fill-opacity:1;fill-rule:nonzero;stroke:none;stroke-width:0.347732"
       d="m 27.238586,38.972543 0.554606,-2.69318 2.119754,-0.1484 -0.554978,2.69354 z m 2.832629,8.59803 2.991888,-14.25529 -7.310379,0.51154 -2.99153,14.25493 2.595227,-0.18201 1.327293,-6.27378 2.11968,-0.14839 -1.327288,6.27414 z" />
    <path
       inkscape:connector-curvature="0"
       id="path184"
       style="display:none;fill:#d5d5d5;fill-opacity:1;fill-rule:nonzero;stroke:none;stroke-width:0.347732"
       d="m 38.642948,46.994173 2.436926,-11.62086 2.49608,-0.1752 0.55493,-2.63374 -7.587518,0.53065 -0.554634,2.63373 2.495947,-0.17421 -2.436599,11.6212 z" />
    <path
       inkscape:connector-curvature="0"
       id="path188"
       style="display:none;fill:#d5d5d5;fill-opacity:1;fill-rule:nonzero;stroke:none;stroke-width:0.347732"
       d="m 44.289524,46.599233 2.5951,-0.18101 2.9915,-14.25528 -2.59522,0.182 z" />
    <path
       inkscape:connector-curvature="0"
       id="path192"
       style="display:none;fill:#d5d5d5;fill-opacity:1;fill-rule:nonzero;stroke:none;stroke-width:0.347732"
       d="m 55.397244,34.394993 2.11975,-0.14839 -1.88236,8.98749 -2.11949,0.14838 z m -5.03203,11.80203 7.31001,-0.51042 2.99153,-14.25494 -7.31028,0.51044 z" />
    <path
       inkscape:connector-curvature="0"
       id="path196"
       style="display:none;fill:#d5d5d5;fill-opacity:1;fill-rule:nonzero;stroke:none;stroke-width:0.347732"
       d="m 63.750644,45.285023 1.36653,-6.47511 1.18856,6.29603 2.25853,-0.15792 2.991923,-14.25493 -2.595223,0.18201 -1.36734,6.57353 -1.18854,-6.39514 -2.25854,0.15791 -2.99084,14.25493 z" />
    <path
       inkscape:connector-curvature="0"
       id="path200"
       style="display:none;fill:#fefefe;fill-opacity:1;fill-rule:nonzero;stroke:none;stroke-width:0.347732"
       d="m 6.3429127,25.871453 -1.377018,6.50538 9.7983983,-0.68471 2.489415,-11.87958 -6.329111,0.44214 0.767747,-3.65465 2.860076,-0.20018 -0.503204,2.41917 3.469299,-0.24297 1.244526,-5.93996 -4.328229,0.30289 -8.7287723,0.56991 2.909827,1.489 -1.87565,9.01912 6.3290373,-0.44213 -1.032406,4.83973 -2.8336453,0.19738 0.635302,-2.98354 z" />
    <path
       inkscape:connector-curvature="0"
       id="path204-7"
       style="display:none;fill:#e23229;fill-opacity:1;fill-rule:nonzero;stroke:none;stroke-width:0.347732"
       d="M 10.18459,7.1363832 9.9071327,8.5019132 113.3804,1.3887432 113.67485,-1.1686601e-4 Z" />
    <path
       inkscape:connector-curvature="0"
       id="path208-1"
       style="display:none;fill:#e23229;fill-opacity:1;fill-rule:nonzero;stroke:none;stroke-width:0.347732"
       d="M 0.00121965,56.379873 103.47449,49.266313 103.76893,47.877463 0.27896565,55.013953 Z" />
    <path
       sodipodi:nodetypes="cccccccc"
       inkscape:connector-curvature="0"
       id="path1772-1"
       d="m 107.59267,12.476363 -12.876863,14.89523 9.913653,-0.68019 z m -3.743,7.27758 -1.02896,4.93612 -3.515433,0.2412 z"
       style="display:none;fill:#e23229;fill-opacity:1;stroke:none;stroke-width:0.262684px;stroke-linecap:butt;stroke-linejoin:miter;stroke-opacity:1" />
  </g>
</svg>
